HIERARCHY
ROOT pelvis
{
	OFFSET 0.00 0.00 0.00
	CHANNELS 6 Xposition Yposition Zposition Xrotation Yrotation Zrotation
	JOINT lfemur
	{
		OFFSET 0.00000 4.00987 0.00000
		CHANNELS 3 Xrotation Yrotation Zrotation
		JOINT ltibia
		{
			OFFSET 0.00000 0.00000 -16.96567
			CHANNELS 3 Xrotation Yrotation Zrotation
			JOINT lfoot
			{
				OFFSET 0.00000 0.00000 -15.14977
				CHANNELS 3 Xrotation Yrotation Zrotation
				JOINT ltoes
				{
					OFFSET 4.80706 0.00000 -0.34192
					CHANNELS 3 Xrotation Yrotation Zrotation
				}
			}
		}
	}
	JOINT rfemur
	{
		OFFSET 0.00000 -4.00987 0.00000
		CHANNELS 3 Xrotation Yrotation Zrotation
		JOINT rtibia
		{
			OFFSET 0.00000 0.00000 -17.37260
			CHANNELS 3 Xrotation Yrotation Zrotation
			JOINT rfoot
			{
				OFFSET 0.00000 0.00000 -14.74017
				CHANNELS 3 Xrotation Yrotation Zrotation
				JOINT rtoes
				{
					OFFSET 4.34786 0.00000 -1.10103
					CHANNELS 3 Xrotation Yrotation Zrotation
				}
			}
		}
	}
	JOINT lowerback
	{
		OFFSET -1.96850 0.00000 4.19271
		CHANNELS 3 Xrotation Yrotation Zrotation
		JOINT upperback
		{
			OFFSET 0.46383 0.00000 7.28365
			CHANNELS 3 Xrotation Yrotation Zrotation
			JOINT lclavicle
			{
				OFFSET 0.00000 0.00000 8.84290
				CHANNELS 3 Xrotation Yrotation Zrotation
				JOINT lhumerus
				{
					OFFSET 0.00000 5.32652 -2.91730
					CHANNELS 3 Xrotation Yrotation Zrotation
					JOINT lradius
					{
						OFFSET 0.00000 0.00000 -11.04679
						CHANNELS 3 Xrotation Yrotation Zrotation
						JOINT lhand
						{
							OFFSET 0.00000 0.00000 -7.95329
							CHANNELS 3 Xrotation Yrotation Zrotation
						}
					}
				}
			}
			JOINT rclavicle
			{
				OFFSET 0.00000 0.00000 8.84290
				CHANNELS 3 Xrotation Yrotation Zrotation
				JOINT rhumerus
				{
					OFFSET 0.00000 -5.91097 -2.78771
					CHANNELS 3 Xrotation Yrotation Zrotation
					JOINT rradius
					{
						OFFSET 0.00000 0.00000 -11.28954
						CHANNELS 3 Xrotation Yrotation Zrotation
						JOINT rhand
						{
							OFFSET 0.00000 0.00000 -7.95361
							CHANNELS 3 Xrotation Yrotation Zrotation
						}
					}
				}
			}
			JOINT LowerNeck
			{
				OFFSET 0.00000 0.00000 8.84290
				CHANNELS 3 Xrotation Yrotation Zrotation
				JOINT Neck
				{
					OFFSET -0.14998 -1.07471 3.07123
					CHANNELS 3 Xrotation Yrotation Zrotation
				}
			}
		}
	}
}
MOTION
Frames: 9
Frame Time: 0.008342
 1.8756 19.0455 20.6937 16.1010 -3.7582 83.9579 -2.3587 -61.7113 -7.7747 0.0000 55.8528 15.3355 -2.1428 30.0865 -5.8641 0.0000 -15.5333 -0.0000 11.2227 -60.5966 1.6850 0.0000 56.4976 -10.6271 -1.6341 19.6573 -5.2043 -0.0000 -4.0105 -0.0000 2.2546 10.7943 0.0622 -1.5429 31.6192 1.5191 4.8591 -0.0000 -5.9464 13.6177 -48.7317 -23.5267 0.0000 -37.9825 -31.4615 36.2942 -3.2502 0.0000 -1.7390 0.0000 6.3688 -19.5788 -43.6903 18.9048 -0.0000 -41.3093 18.2614 -41.0572 -2.1389 -0.0000 -0.5844 -5.1080 0.3918 -0.7426 -45.9149 -12.1637
 1.8756 19.0455 20.6937 16.1010 -3.7582 83.9579 -2.3587 -61.7113 -7.7747 0.0000 55.8528 15.3355 -2.1428 30.0865 -5.8641 0.0000 -15.5333 -0.0000 11.2227 -60.5966 1.6850 0.0000 56.4976 -10.6271 -1.6341 19.6573 -5.2043 -0.0000 -4.0105 -0.0000 2.2546 10.7943 0.0622 -1.5429 31.6192 1.5191 4.8591 -0.0000 -5.9464 13.6177 -48.7317 -23.5267 0.0000 -37.9825 -31.4615 36.2942 -3.2502 0.0000 -1.7390 0.0000 6.3688 -19.5788 -43.6903 18.9048 -0.0000 -41.3093 18.2614 -41.0572 -2.1389 -0.0000 -0.5844 -5.1080 0.3918 -0.7426 -45.9149 -12.1637
 1.8756 19.0455 20.6937 16.1010 -3.7582 83.9579 -2.3587 -61.7113 -7.7747 0.0000 55.8528 15.3355 -2.1428 30.0865 -5.8641 0.0000 -15.5333 -0.0000 11.2227 -60.5966 1.6850 0.0000 56.4976 -10.6271 -1.6341 19.6573 -5.2043 -0.0000 -4.0105 -0.0000 2.2546 10.7943 0.0622 -1.5429 31.6192 1.5191 4.8591 -0.0000 -5.9464 13.6177 -48.7317 -23.5267 0.0000 -37.9825 -31.4615 36.2942 -3.2502 0.0000 -1.7390 0.0000 6.3688 -19.5788 -43.6903 18.9048 -0.0000 -41.3093 18.2614 -41.0572 -2.1389 -0.0000 -0.5844 -5.1080 0.3918 -0.7426 -45.9149 -12.1637
 1.8748 19.0448 20.6931 16.1091 -3.7600 83.9555 -2.3681 -61.7002 -7.7973 0.0000 55.8444 15.3283 -2.1409 30.1698 -5.8501 0.0000 -15.8780 -0.0000 11.2169 -60.5898 1.6768 0.0000 56.4961 -10.6199 -1.6343 19.6530 -5.2051 0.0000 -3.9928 -0.0000 2.2477 10.8005 0.0698 -1.5654 31.6541 1.5210 4.8645 -0.0000 -5.9297 13.6354 -48.7438 -23.4787 0.0000 -38.0763 -31.4442 36.1339 -3.1555 0.0000 -1.7493 -0.0000 6.3666 -19.5617 -43.6988 18.8884 -0.0000 -41.3483 18.2172 -41.0225 -2.2059 -0.0000 -0.5744 -5.0500 0.4404 -0.8712 -46.0591 -12.5096
 1.8748 19.0448 20.6931 16.1091 -3.7600 83.9555 -2.3681 -61.7002 -7.7973 0.0000 55.8444 15.3283 -2.1409 30.1698 -5.8501 0.0000 -15.8780 -0.0000 11.2169 -60.5898 1.6768 0.0000 56.4961 -10.6199 -1.6343 19.6530 -5.2051 0.0000 -3.9928 -0.0000 2.2477 10.8005 0.0698 -1.5654 31.6541 1.5210 4.8645 -0.0000 -5.9297 13.6354 -48.7438 -23.4787 0.0000 -38.0763 -31.4442 36.1339 -3.1555 0.0000 -1.7493 -0.0000 6.3666 -19.5617 -43.6988 18.8884 -0.0000 -41.3483 18.2172 -41.0225 -2.2059 -0.0000 -0.5744 -5.0500 0.4404 -0.8712 -46.0591 -12.5096
 1.8748 19.0448 20.6931 16.1091 -3.7600 83.9555 -2.3681 -61.7002 -7.7973 0.0000 55.8444 15.3283 -2.1409 30.1698 -5.8501 0.0000 -15.8780 -0.0000 11.2169 -60.5898 1.6768 0.0000 56.4961 -10.6199 -1.6343 19.6530 -5.2051 0.0000 -3.9928 -0.0000 2.2477 10.8005 0.0698 -1.5654 31.6541 1.5210 4.8645 -0.0000 -5.9297 13.6354 -48.7438 -23.4787 0.0000 -38.0763 -31.4442 36.1339 -3.1555 0.0000 -1.7493 -0.0000 6.3666 -19.5617 -43.6988 18.8884 -0.0000 -41.3483 18.2172 -41.0225 -2.2059 -0.0000 -0.5744 -5.0500 0.4404 -0.8712 -46.0591 -12.5096
 1.8725 19.0448 20.6941 16.1175 -3.7628 83.9524 -2.3766 -61.6869 -7.8076 0.0000 55.8431 15.3962 -2.1531 30.1028 -5.8906 0.0000 -15.4584 0.0000 11.1926 -60.5816 1.6317 0.0000 56.5003 -10.6352 -1.6273 19.6276 -5.1844 0.0000 -3.9448 0.0000 2.2410 10.8034 0.0776 -1.5827 31.6882 1.5119 4.8799 -0.0000 -5.9210 13.6636 -48.7423 -23.4231 0.0000 -38.1673 -31.3197 35.9854 -3.1061 0.0000 -1.7597 -0.0000 6.3700 -19.5402 -43.7169 18.8628 -0.0000 -41.3464 18.2096 -41.0033 -2.2182 -0.0000 -0.5509 -5.0155 0.4766 -0.9621 -46.1782 -12.7975
 1.8725 19.0448 20.6941 16.1175 -3.7628 83.9524 -2.3766 -61.6869 -7.8076 0.0000 55.8431 15.3962 -2.1531 30.1028 -5.8906 0.0000 -15.4584 0.0000 11.1926 -60.5816 1.6317 0.0000 56.5003 -10.6352 -1.6273 19.6276 -5.1844 0.0000 -3.9448 0.0000 2.2410 10.8034 0.0776 -1.5827 31.6882 1.5119 4.8799 -0.0000 -5.9210 13.6636 -48.7423 -23.4231 0.0000 -38.1673 -31.3197 35.9854 -3.1061 0.0000 -1.7597 -0.0000 6.3700 -19.5402 -43.7169 18.8628 -0.0000 -41.3464 18.2096 -41.0033 -2.2182 -0.0000 -0.5509 -5.0155 0.4766 -0.9621 -46.1782 -12.7975
 1.8725 19.0448 20.6941 16.1175 -3.7628 83.9524 -2.3766 -61.6869 -7.8076 0.0000 55.8431 15.3962 -2.1531 30.1028 -5.8906 0.0000 -15.4584 0.0000 11.1926 -60.5816 1.6317 0.0000 56.5003 -10.6352 -1.6273 19.6276 -5.1844 0.0000 -3.9448 0.0000 2.2410 10.8034 0.0776 -1.5827 31.6882 1.5119 4.8799 -0.0000 -5.9210 13.6636 -48.7423 -23.4231 0.0000 -38.1673 -31.3197 35.9854 -3.1061 0.0000 -1.7597 -0.0000 6.3700 -19.5402 -43.7169 18.8628 -0.0000 -41.3464 18.2096 -41.0033 -2.2182 -0.0000 -0.5509 -5.0155 0.4766 -0.9621 -46.1782 -12.7975
